<?xml version="1.0" encoding="UTF-8" standalone="no"?>
<!-- Created with Inkscape (http://www.inkscape.org/) -->

<svg
   xmlns:dc="http://purl.org/dc/elements/1.1/"
   xmlns:cc="http://creativecommons.org/ns#"
   xmlns:rdf="http://www.w3.org/1999/02/22-rdf-syntax-ns#"
   xmlns:svg="http://www.w3.org/2000/svg"
   xmlns="http://www.w3.org/2000/svg"
   xmlns:sodipodi="http://sodipodi.sourceforge.net/DTD/sodipodi-0.dtd"
   xmlns:inkscape="http://www.inkscape.org/namespaces/inkscape"
   width="900"
   height="900"
   id="svg2"
   version="1.1"
   inkscape:version="0.48.3.1 r9886"
   sodipodi:docname="wytwórnia_małe_logo.svg">
  <defs
     id="defs4" />
  <sodipodi:namedview
     id="base"
     pagecolor="#ffffff"
     bordercolor="#666666"
     borderopacity="1.0"
     inkscape:pageopacity="0.0"
     inkscape:pageshadow="2"
     inkscape:zoom="0.5"
     inkscape:cx="463.31706"
     inkscape:cy="381.83946"
     inkscape:document-units="px"
     inkscape:current-layer="layer1"
     showgrid="false"
     inkscape:window-width="1226"
     inkscape:window-height="776"
     inkscape:window-x="54"
     inkscape:window-y="24"
     inkscape:window-maximized="1"
     fit-margin-top="0"
     fit-margin-left="0"
     fit-margin-right="0"
     fit-margin-bottom="0" />
  <metadata
     id="metadata7">
    <rdf:RDF>
      <cc:Work
         rdf:about="">
        <dc:format>image/svg+xml</dc:format>
        <dc:type
           rdf:resource="http://purl.org/dc/dcmitype/StillImage" />
        <dc:title></dc:title>
      </cc:Work>
    </rdf:RDF>
  </metadata>
  <g
     inkscape:label="Layer 1"
     inkscape:groupmode="layer"
     id="layer1"
     transform="translate(-54.789062,83.165793)">
    <g
       style="font-size:144px;font-style:normal;font-variant:normal;font-weight:normal;font-stretch:normal;text-align:center;line-height:125%;letter-spacing:0px;word-spacing:0px;text-anchor:middle;fill:#000000;fill-opacity:1;stroke:none;font-family:'Lemon/Milk';-inkscape-font-specification:'Lemon/Milk'"
       id="text2985" />
    <path
       style="fill:#000000;fill-opacity:1;stroke:none"
       d="m 421.93493,346.8351 c 9.89789,-5.43709 21.81106,-5.76436 31.99257,-0.87889 l -15.14136,31.55536 z"
       id="path3804"
       inkscape:connector-curvature="0" />
    <g
       transform="scale(1.2023719,0.83168942)"
       style="font-size:153.58853149px;font-style:normal;font-variant:normal;font-weight:normal;font-stretch:normal;text-align:center;line-height:125%;letter-spacing:0px;word-spacing:0px;text-anchor:middle;fill:#000000;fill-opacity:1;stroke:none;font-family:'Lemon/Milk';-inkscape-font-specification:'Lemon/Milk'"
       id="text2993" />
    <g
       transform="matrix(1.1375262,0.56330995,-0.30487383,0.61565034,231.35421,-85.688633)"
       style="font-size:113.44267273px;font-style:normal;font-variant:normal;font-weight:normal;font-stretch:normal;text-align:center;line-height:125%;letter-spacing:0px;word-spacing:0px;text-anchor:middle;fill:#000000;fill-opacity:1;stroke:none;font-family:'Lemon/Milk';-inkscape-font-specification:'Lemon/Milk'"
       id="text3000" />
    <text
       xml:space="preserve"
       style="font-size:144px;font-style:normal;font-variant:normal;font-weight:normal;font-stretch:normal;text-align:center;line-height:125%;letter-spacing:0px;word-spacing:0px;text-anchor:middle;fill:#000000;fill-opacity:1;stroke:none;font-family:'Lemon/Milk';-inkscape-font-specification:'Lemon/Milk'"
       x="220"
       y="634.09448"
       id="text3007"
       sodipodi:linespacing="125%"
       transform="translate(0,308.2677)"><tspan
         sodipodi:role="line"
         id="tspan3009"
         x="220"
         y="634.09448" /></text>
    <g
       id="g3014"
       style="font-size:113.44267273px;font-style:normal;font-variant:normal;font-weight:normal;font-stretch:normal;text-align:center;line-height:125%;letter-spacing:0px;word-spacing:0px;text-anchor:middle;fill:#000000;fill-opacity:1;stroke:none;font-family:'Lemon/Milk';-inkscape-font-specification:'Lemon/Milk'"
       transform="matrix(1.1375262,0.56330995,-0.30487383,0.61565034,272.35421,-85.688633)" />
    <text
       xml:space="preserve"
       style="font-size:56px;font-style:normal;font-variant:normal;font-weight:normal;font-stretch:normal;text-align:center;line-height:125%;letter-spacing:0px;word-spacing:0px;text-anchor:middle;fill:#000000;fill-opacity:1;stroke:none;font-family:Fabrik;-inkscape-font-specification:Fabrik"
       x="504"
       y="820.36218"
       id="text3037"
       sodipodi:linespacing="125%"><tspan
         sodipodi:role="line"
         id="tspan3039"
         x="504"
         y="820.36218"
         style="font-size:56px;font-style:normal;font-variant:normal;font-weight:normal;font-stretch:normal;font-family:Fabrik;-inkscape-font-specification:Fabrik" /></text>
    <g
       style="font-size:144px;font-style:normal;font-variant:normal;font-weight:normal;font-stretch:normal;text-align:center;line-height:125%;letter-spacing:0px;word-spacing:0px;text-anchor:middle;fill:#000000;fill-opacity:1;stroke:none;font-family:Khmer OS;-inkscape-font-specification:Khmer OS"
       id="text3041"
       transform="translate(12.164061,-322.5921)">
      <path
         id="path3023"
         style="font-size:56px;font-family:Fabrik;-inkscape-font-specification:Fabrik"
         d="m 597.41662,806.36218 -4.872,0 0,-2.296 c -0.67201,0.784 -1.43734,1.456 -2.296,2.016 -0.85867,0.56 -1.82934,0.84 -2.91199,0.84 -1.30668,0 -2.53868,-0.13066 -3.69601,-0.392 -1.12,-0.26133 -2.10933,-0.672 -2.96799,-1.232 -0.85867,-0.59733 -1.54934,-1.38133 -2.072,-2.352 -0.48534,-1.00799 -0.72801,-2.23999 -0.72801,-3.696 0,-1.41866 0.26134,-2.65065 0.784,-3.696 0.56,-1.08265 1.30667,-1.95998 2.24,-2.632 0.93333,-0.70932 1.99733,-1.23198 3.192,-1.568 1.19466,-0.37332 2.44533,-0.55998 3.75201,-0.56 1.11998,2e-5 2.09065,0.28002 2.91199,0.84 0.82132,0.56002 1.49332,1.32535 2.01601,2.296 -2e-5,-0.82132 -0.0374,-1.64265 -0.11201,-2.464 -0.0373,-0.85865 -0.20534,-1.62398 -0.50399,-2.296 -0.26135,-0.70931 -0.69069,-1.26931 -1.288,-1.68 -0.59735,-0.44798 -1.43735,-0.67198 -2.52001,-0.672 -0.85867,2e-5 -1.71734,0.14936 -2.57599,0.448 -0.85868,0.26135 -1.66135,0.59735 -2.408,1.008 l -1.736,-3.696 c 1.04532,-0.63464 2.16532,-1.15731 3.36,-1.568 1.23199,-0.41064 2.46398,-0.61597 3.69599,-0.616 2.72532,3e-5 4.85332,0.82136 6.384,2.464 1.56799,1.64269 2.35198,3.80802 2.352,6.496 l 0,15.008 m -4.536,-7.392 c -10e-6,-0.74666 -0.18668,-1.36266 -0.56,-1.848 -0.33601,-0.52265 -0.78401,-0.93332 -1.34399,-1.232 -0.52269,-0.33599 -1.12002,-0.55999 -1.79201,-0.672 -0.63467,-0.14932 -1.25067,-0.22399 -1.84799,-0.224 -1.38135,10e-6 -2.59468,0.31735 -3.64,0.952 -1.00801,0.59735 -1.51201,1.66134 -1.51201,3.192 0,0.74668 0.14933,1.36268 0.448,1.848 0.29867,0.44801 0.69066,0.80267 1.176,1.064 0.52266,0.26134 1.08266,0.44801 1.68,0.56 0.59733,0.0747 1.21333,0.11201 1.84801,0.112 0.55998,10e-6 1.15732,-0.056 1.792,-0.168 0.67198,-0.14933 1.26931,-0.35466 1.79199,-0.616 0.55999,-0.29866 1.02666,-0.69066 1.4,-1.176 0.37332,-0.48532 0.55999,-1.08266 0.56,-1.792 m -22.08325,7.392 0,-12.656 c -10e-6,-0.78398 -0.0747,-1.53065 -0.22399,-2.24 -0.11202,-0.74665 -0.33602,-1.41865 -0.672,-2.016 -0.33602,-0.59731 -0.80269,-1.06398 -1.4,-1.4 -0.56002,-0.37331 -1.30668,-0.55998 -2.24,-0.56 -1.97868,2e-5 -3.36001,0.59735 -4.144,1.792 -0.78401,1.15735 -1.17601,2.63202 -1.17601,4.424 l 0,12.656 -4.70399,0 0,-22.96 4.53599,0 0,3.192 c 0.336,-1.41864 0.97066,-2.46398 1.904,-3.136 0.97066,-0.67197 2.16533,-1.00797 3.58401,-1.008 1.75465,3e-5 3.21065,0.29869 4.36799,0.896 1.19465,0.56003 2.14665,1.36269 2.856,2.408 0.70932,1.00802 1.21332,2.20269 1.51201,3.584 0.29864,1.34402 0.44797,2.80002 0.448,4.368 l 0,12.656 -4.64801,0 m -50.1865,-22.176 4.36801,-1.512 6.216,14 5.6,-12.488 5.65599,12.488 6.384,-14 4.2,1.512 -10.584,24.024 -5.65599,-11.928 -5.6,11.928 -10.58401,-24.024 0,0 m -15.15587,18.144 -8.568,-18.48 4.816,-1.624 6.552,14.28 7.168,-14.336 4.424,1.68 -16.072,32.984 -5.88,0 7.56,-14.504 0,0 m -13.43125,-18.592 3.08,0 0,5.04 -3.192,0 0,17.584 -4.872,0 0,-17.584 -3.024,0 0,-5.04 3.192,0 0,-10.752 4.816,-1.736 0,12.488 0,0 m -8.904,22.624 -4.872,0 0,-2.296 c -0.67202,0.784 -1.43735,1.456 -2.296,2.016 -0.85868,0.56 -1.82935,0.84 -2.912,0.84 -1.30668,0 -2.53867,-0.13066 -3.696,-0.392 -1.12001,-0.26133 -2.10934,-0.672 -2.968,-1.232 -0.85867,-0.59733 -1.54934,-1.38133 -2.072,-2.352 -0.48533,-1.00799 -0.728,-2.23999 -0.728,-3.696 0,-1.41866 0.26133,-2.65065 0.784,-3.696 0.56,-1.08265 1.30666,-1.95998 2.24,-2.632 0.93333,-0.70932 1.99733,-1.23198 3.192,-1.568 1.19466,-0.37332 2.44532,-0.55998 3.752,-0.56 1.11999,2e-5 2.09065,0.28002 2.912,0.84 0.82132,0.56002 1.49332,1.32535 2.016,2.296 -2e-5,-0.82132 -0.0374,-1.64265 -0.112,-2.464 -0.0374,-0.85865 -0.20535,-1.62398 -0.504,-2.296 -0.26135,-0.70931 -0.69068,-1.26931 -1.288,-1.68 -0.59735,-0.44798 -1.43735,-0.67198 -2.52,-0.672 -0.85868,2e-5 -1.71734,0.14936 -2.576,0.448 -0.85867,0.26135 -1.66134,0.59735 -2.408,1.008 l -1.736,-3.696 c 1.04533,-0.63464 2.16533,-1.15731 3.36,-1.568 1.23199,-0.41064 2.46399,-0.61597 3.696,-0.616 2.72532,3e-5 4.85332,0.82136 6.384,2.464 1.56798,1.64269 2.35198,3.80802 2.352,6.496 l 0,15.008 m -4.536,-7.392 c -2e-5,-0.74666 -0.18668,-1.36266 -0.56,-1.848 -0.33602,-0.52265 -0.78401,-0.93332 -1.344,-1.232 -0.52268,-0.33599 -1.12001,-0.55999 -1.792,-0.672 -0.63468,-0.14932 -1.25068,-0.22399 -1.848,-0.224 -1.38134,10e-6 -2.59467,0.31735 -3.64,0.952 -1.00801,0.59735 -1.51201,1.66134 -1.512,3.192 -10e-6,0.74668 0.14933,1.36268 0.448,1.848 0.29866,0.44801 0.69066,0.80267 1.176,1.064 0.52266,0.26134 1.08266,0.44801 1.68,0.56 0.59732,0.0747 1.21332,0.11201 1.848,0.112 0.55999,10e-6 1.15732,-0.056 1.792,-0.168 0.67199,-0.14933 1.26932,-0.35466 1.792,-0.616 0.55999,-0.29866 1.02665,-0.69066 1.4,-1.176 0.37332,-0.48532 0.55998,-1.08266 0.56,-1.792 m -34.58263,-1.848 c 0.41067,1.82934 1.19466,3.17334 2.352,4.032 1.19466,0.85867 2.70666,1.28801 4.536,1.288 1.00799,10e-6 1.95999,-0.22399 2.85601,-0.672 0.93331,-0.44799 1.75464,-1.02666 2.464,-1.736 l 3.02399,3.024 c -1.08268,1.38134 -2.37068,2.37067 -3.864,2.968 -1.45601,0.59734 -3.04268,0.896 -4.76,0.896 -1.71734,0 -3.26667,-0.29866 -4.648,-0.896 -1.38133,-0.59733 -2.55733,-1.41866 -3.52799,-2.464 -0.97068,-1.08266 -1.71734,-2.35199 -2.24001,-3.808 -0.52266,-1.45599 -0.784,-3.02399 -0.78399,-4.704 -1e-5,-1.67998 0.26133,-3.24798 0.78399,-4.704 0.56,-1.49331 1.32533,-2.78131 2.296,-3.864 0.97067,-1.11998 2.14666,-1.99731 3.52801,-2.632 1.41865,-0.63464 3.00532,-0.95197 4.75999,-0.952 1.56799,3e-5 2.96799,0.31736 4.2,0.952 1.26932,0.59736 2.35199,1.41869 3.248,2.464 0.89598,1.00802 1.58665,2.20269 2.072,3.584 0.48532,1.34402 0.72798,2.74402 0.728,4.2 -2e-5,0.52268 -0.0187,1.02668 -0.056,1.512 -0.0374,0.48535 -0.0934,0.98935 -0.168,1.512 l -16.80001,0 m 12.99201,-4.48 c -0.29869,-1.67998 -0.97069,-3.00531 -2.01601,-3.976 -1.04534,-0.97065 -2.46401,-1.45598 -4.256,-1.456 -1.79201,2e-5 -3.22934,0.48535 -4.31199,1.456 -1.08268,0.97069 -1.84801,2.29602 -2.296,3.976 l 12.88,0 m -19.74175,-10.08 c 0.55999,3e-5 1.10132,0.0747 1.62401,0.224 0.52265,0.14936 1.02664,0.35469 1.512,0.616 l -2.01601,4.48 c -0.44801,-0.11198 -0.93334,-0.16798 -1.456,-0.168 -1.56801,2e-5 -2.85601,0.33602 -3.864,1.008 -0.97067,0.63469 -1.736,1.49335 -2.29599,2.576 -0.56001,1.08268 -0.95201,2.29602 -1.176,3.64 -0.18668,1.34401 -0.29868,2.70668 -0.336,4.088 -0.0373,1.38134 -0.0187,2.72534 0.056,4.032 0.0747,1.26934 0.112,2.37067 0.11201,3.304 l -4.48001,0 0,-22.96 4.536,0 0,3.584 c 0.0373,-0.63464 0.35466,-1.21331 0.952,-1.736 0.63466,-0.55998 1.36266,-1.02664 2.18401,-1.4 0.82132,-0.41064 1.66132,-0.72797 2.51999,-0.952 0.85866,-0.22397 1.56799,-0.33597 2.128,-0.336 m -33.19663,-18.088 0,28.56 10.416,-10.416 6.608,0 -10.976,11.032 12.656,12.712 -6.608,0 -12.152,-12.096 0,12.096 -5.152,0 0,-41.888 5.208,0 0,0 m 143.21645,-146.33682 25.35214,0.0785 8.22281,-15.97249 -15.35216,-21.07851 -18.22275,36.97251 m -41.00004,-2e-5 25.35214,0.0785 22.22278,-44.9725 -20.35215,-10.07851 -27.22273,54.97252 m 364.28345,91.56855 8.92968,-19.82812 8.85938,19.82812 -17.78906,0 m -10.19532,22.64063 38.25,0 0.35157,0.77344 7.24218,16.24218 3.86719,0 0.98438,0 14.625,0 4.78125,0 -48.58594,-108 -2.46094,-5.34375 -2.39062,5.27344 -48.51563,108.07031 4.78125,0 14.625,0 0.91406,0 3.86719,0 7.3125,-16.17187 0.35156,-0.84375 m -64.82812,17.01562 22.71094,0 0,-113.34375 -22.71094,0 0,113.34375 M 692.3125,636.01843 l 0,113.34375 22.71094,0 0,-62.01562 67.99218,62.01562 0,-113.34375 -22.71093,0 0,61.94532 -67.99219,-61.94532 m -89.71875,113.34375 22.71094,0 0,-41.48437 28.96875,41.48437 27.70312,0 -25.59375,-36.63281 0,0 0,0 c 7.45312,-2.8125 13.57032,-7.52344 18.35156,-14.27344 4.78125,-6.74999 7.24219,-14.34376 7.24219,-22.78125 l 0,0 c 0,-10.82811 -3.93751,-20.17969 -11.67187,-27.98437 -7.80468,-7.73437 -17.15626,-11.67188 -28.05469,-11.67188 l 0,0 -16.94531,0 -22.71094,0 0,39.65625 0,0 0,39.65625 0,34.03125 m 22.71094,-56.67187 0,-17.01563 0,0 0,-17.01562 16.94531,0 0,0 c 4.64062,0 8.64844,1.6875 12.02344,5.0625 3.30468,3.37499 4.99218,7.3125 4.99218,11.95312 l 0,0 c 0,4.71094 -1.6875,8.71876 -4.99218,12.02344 -3.375,3.375 -7.38282,4.99219 -12.02344,4.99219 l 0,0 -16.94531,0 m -86.13282,-56.67188 c -15.60935,0 -28.96876,5.5547 -40.07812,16.66407 C 487.98439,663.79186 482.5,677.15126 482.5,692.69031 l 0,0 c 0,15.60936 5.48439,28.96876 16.59375,40.07812 11.10936,11.10937 24.46877,16.59375 40.07812,16.59375 l 0,0 c 15.53905,0 28.89845,-5.48438 40.00782,-16.59375 11.10936,-11.10936 16.66406,-24.46876 16.66406,-40.07812 l 0,0 c 0,-15.53905 -5.5547,-28.89845 -16.66406,-40.00781 -11.10937,-11.10937 -24.46877,-16.66407 -40.00782,-16.66407 m 0,22.64063 0,0 c 9.28125,0 17.29689,3.375 23.97657,10.05469 6.67968,6.67968 10.05468,14.69532 10.05468,23.97656 l 0,0 c 0,9.42186 -3.375,17.4375 -10.05468,24.04687 -6.67968,6.60937 -14.69532,9.91407 -23.97657,9.91407 l 0,0 c -9.42186,0 -17.4375,-3.3047 -24.04687,-9.91407 -6.60937,-6.60937 -9.91406,-14.62501 -9.91406,-24.04687 l 0,0 c 0,-9.28124 3.30469,-17.29688 9.91406,-23.97656 6.60937,-6.67969 14.62501,-10.05469 24.04687,-10.05469 m -20.24218,-96.64063 -4.78125,0 -14.69532,0 -0.91406,0 -3.86719,0 -67.85937,133.69532 -26.85938,-59.69532 -3.65625,0 -0.91406,0 -14.90625,0 -4.5,0 48.51563,108 0,0 2.39062,5.34375 92.04688,-187.34375 m -203.5625,74 -28.33594,0 0,22.64063 28.33594,0 0,90.70312 22.71093,0 0,-90.70312 28.33594,0 0,-22.64063 -28.33594,0 -22.71093,0 m -124.45313,0 33.96094,62.50782 0,50.83593 22.64062,0 0,-50.83593 34.03125,-62.50782 -25.80468,0 -19.54688,35.92969 -19.54687,-35.92969 -25.73438,0 m -136.124998,0 45.281248,113.34375 20.67188,-52.66406 21.09375,52.66406 45.28125,-113.34375 -24.46875,0 -20.8125,51.32813 -20.88281,-51.32813 -20.88282,51.32813 -20.88281,-51.32813 -24.398438,0"
         inkscape:connector-curvature="0" />
    </g>
  </g>
</svg>
